<svg id="Pokéball" xmlns="http://www.w3.org/2000/svg" viewBox="0 0 511.5 511.4"><defs><style>.cls-1{fill:#fff;}.cls-2{fill:#ff1c1c;}</style></defs><g id="Pokéball-2" data-name="Pokéball"><g id="Colours"><path id="Down" class="cls-1" d="M255.7,339.6A84,84,0,0,1,173.6,273H39.2c9.5,110.5,102.2,197.2,215.1,197.2S460,383.5,469.4,273H337.8A83.88,83.88,0,0,1,255.7,339.6Z" transform="translate(0 0)"/><path id="Center" class="cls-1" d="M305.2,255.7h0a52.06,52.06,0,0,0-3.2-17.3,49.4,49.4,0,0,0-95.7,17.3h.1a49.4,49.4,0,1,0,98.8,0Z" transform="translate(0 0)"/><path id="Up" class="cls-2" d="M255.8,171.9a84,84,0,0,1,82.1,66.6H472.3C462.8,127.9,370.1,41.2,257.1,41.2S51.5,127.9,42,238.4H173.7A83.89,83.89,0,0,1,255.8,171.9Z" transform="translate(0 0)"/></g><path id="Line" d="M257.1,41.2c113,0,205.7,86.7,215.1,197.2H337.8a83.9,83.9,0,0,0-164.2,0H42C51.5,127.9,144.2,41.2,257.1,41.2ZM302,238.4a49.6,49.6,0,0,1,3.1,17.3h.1a49.4,49.4,0,1,1-98.8,0h-.1A49.42,49.42,0,0,1,302,238.4ZM254.3,470.3c-113,0-205.7-86.7-215.1-197.2H173.6a83.9,83.9,0,0,0,164.2,0H469.5C460,383.5,367.3,470.3,254.3,470.3ZM255.7,0C114.5,0,0,114.5,0,255.7S114.5,511.4,255.7,511.4,511.5,397,511.5,255.7,397,0,255.7,0Z" transform="translate(0 0)"/></g></svg>