<svg xmlns="http://www.w3.org/2000/svg" viewBox="0 0 531.5 531.4"><defs><style>.cls-1{fill:#fff;stroke:#fff;stroke-miterlimit:10;stroke-width:20px;opacity:0.43;}</style></defs><g id="Pokéball"><g id="Pokéball-2"><path id="Line" class="cls-1" d="M257.1,41.2c113,0,205.7,86.7,215.1,197.2H337.8a83.9,83.9,0,0,0-164.2,0H42C51.5,127.9,144.2,41.2,257.1,41.2ZM302,238.4a49.82,49.82,0,0,1,3.1,17.3h.1a49.4,49.4,0,0,1-98.8,0h-.1A49.42,49.42,0,0,1,302,238.4ZM254.3,470.3c-113,0-205.7-86.7-215.1-197.2H173.6a83.9,83.9,0,0,0,164.2,0H469.5C460,383.5,367.3,470.3,254.3,470.3ZM255.7,0C114.5,0,0,114.5,0,255.7S114.5,511.4,255.7,511.4,511.5,397,511.5,255.7,397,0,255.7,0Z" transform="translate(10 10)"/></g></g></svg>