<svg xmlns="http://www.w3.org/2000/svg" viewBox="0 0 486 486"><defs><style>.cls-1{opacity:0.74;}</style></defs><g id="Pokéball"><path class="cls-1" d="M73.5,12.7A60.75,60.75,0,0,0,12.75,73.45V438A60.75,60.75,0,0,0,73.5,498.7H438A60.75,60.75,0,0,0,498.75,438V73.45A60.75,60.75,0,0,0,438,12.7ZM179.69,196a7.19,7.19,0,0,1-7.29-7.1c0-.13,0-.27,0-.4,2.86-51.49,45-69.44,83.5-69.44,42.41,0,81.16,22.18,81.16,68,0,32.81-19.28,48.42-37.78,62.48-22.39,17-30.68,23.33-30.68,45.14v3.19a7.59,7.59,0,0,1-7.6,7.59H236.4a7.58,7.58,0,0,1-7.59-7.47l-.12-6.59c-1.16-28.16,15-45.5,35.47-60.35,17.93-13.49,29.32-22.36,29.32-41.65,0-25.06-19.08-35.48-39.92-35.48-24.39,0-38.06,14.52-40.76,34.45-.55,4.16-3.89,7.59-8.08,7.59h-25Zm70.62,195.71c-17.74,0-30.65-12-30.65-28.16,0-16.77,12.91-28.55,30.68-28.55,18.5,0,31.23,11.78,31.23,28.55C281.57,379.69,268.81,391.66,250.31,391.66Z" transform="translate(-12.75 -12.7)"/></g></svg>